<?xml version="1.0" encoding="UTF-8"?>
<svg version="1.1" xmlns="http://www.w3.org/2000/svg" width="108" height="194">
<path d="M0 0 C1.49950195 -0.04350586 1.49950195 -0.04350586 3.02929688 -0.08789062 C15.39215418 -0.19232022 23.82852175 4.60744097 32.65625 12.93359375 C40.06773736 20.81775249 43.86176943 31.72997715 43.96875 42.44140625 C43.43827852 53.67413976 40.39806607 62.84520694 32.9375 71.3125 C32.41285156 71.92996094 31.88820313 72.54742187 31.34765625 73.18359375 C25.16327804 79.95003109 16.17506943 84.69561126 6.94677734 85.48217773 C4.83947327 85.55235461 2.7331533 85.5897171 0.625 85.625 C-8.01011432 85.95787501 -14.35714284 87.77948504 -20.75 93.875 C-22.29909894 96.14560609 -22.29909894 96.14560609 -21.71484375 98.23828125 C-21.49957031 98.92277344 -21.28429688 99.60726562 -21.0625 100.3125 C-18.65283359 108.07698064 -18.32766126 114.93466282 -22.0625 122.3125 C-22.0625 126.4352047 -21.05599086 128.67645441 -18.3125 131.625 C-14.40843398 135.16826371 -11.60357078 135.36473969 -6.375 135.1875 C1.264708 135.12995041 8.18297246 137.64213598 14.11328125 142.4296875 C20.93107482 149.46646801 23.24188023 156.89423784 23.25219727 166.47875977 C23.07283494 175.31633436 19.78790914 181.1887815 13.875 187.5859375 C7.04333388 193.67383352 -0.62116959 194.67712274 -9.484375 194.5859375 C-17.90785919 193.94222146 -24.54694316 189.59711051 -30.0625 183.3125 C-34.21679415 177.17898878 -36.51498108 170.76188361 -36.0625 163.3125 C-35.59091226 161.2796105 -35.0675907 159.25820206 -34.5 157.25 C-32.45999773 149.95090932 -33.50692989 144.87025207 -37.125 138.3125 C-38.76949731 135.53537798 -38.76949731 135.53537798 -40.0625 134.3125 C-41.59927348 134.01515494 -43.14227879 133.7497563 -44.6875 133.5 C-52.54399728 131.96456472 -57.34761717 128.77862502 -62.0625 122.3125 C-64.45263911 118.61864865 -64.36201598 115.27416429 -64.375 110.9375 C-64.39175781 109.65101562 -64.40851563 108.36453125 -64.42578125 107.0390625 C-63.79045206 100.52181466 -60.93960326 96.52454372 -56.0625 92.3125 C-51.03810002 88.76586472 -47.43196025 87.84554476 -41.296875 87.68359375 C-39.03367942 87.46876669 -39.03367942 87.46876669 -37.3515625 86.14453125 C-34.55568682 82.17099884 -34.30976155 77.05374021 -34.0625 72.3125 C-35.0561012 68.57740162 -35.0561012 68.57740162 -37.0625 65.3125 C-42.89172837 53.76486509 -44.91964047 41.70677785 -41.0859375 29.1015625 C-35.75300625 15.44237729 -27.38991256 7.16071775 -14.0625 1.3125 C-9.44525296 -0.22658235 -4.83720555 0.04554807 0 0 Z M-26.0625 23.3125 C-30.73802906 31.1695385 -33.39467931 39.50483795 -31.6015625 48.66796875 C-28.956939 58.70198145 -24.18188559 65.10176265 -15.625 70.90234375 C-7.68880236 75.26967203 1.92638133 75.90342554 10.66796875 73.58984375 C12.89018628 72.64511444 14.88339296 71.57850067 16.9375 70.3125 C17.85402344 69.82136719 17.85402344 69.82136719 18.7890625 69.3203125 C25.54434087 65.24333833 30.29382317 57.58111769 32.375 50.0625 C33.76031035 40.82709764 32.74867817 31.7618583 27.1875 24 C26.13632747 22.74321915 25.05308126 21.51247511 23.9375 20.3125 C23.42316406 19.75691406 22.90882812 19.20132812 22.37890625 18.62890625 C16.37607987 12.85640414 8.69311462 10.16631206 0.4375 9.8125 C-10.54159418 10.32787711 -19.00302723 14.93017108 -26.0625 23.3125 Z " fill="#FD4821" transform="translate(64.0625,-0.31250000000000006)"/>
<path d="M0 0 C6.17219818 3.47370136 9.53888921 8.02405386 12.0625 14.5625 C13.46186629 22.25901462 12.59487781 28.20834609 8.6875 35 C4.20381348 40.09211997 -0.49582829 43.57972629 -7.36328125 44.3359375 C-15.37243374 44.43185549 -20.92411523 43.86738932 -27.0234375 38.4921875 C-31.63361622 33.65712201 -34.15632442 28.19071131 -34.40625 21.484375 C-33.950302 14.05242268 -31.77457087 8.46207087 -26.5 3.1875 C-18.05558252 -2.60768847 -9.53362815 -4.24993062 0 0 Z " fill="#FD4821" transform="translate(75.3125,21)"/>
</svg>
