<?xml version="1.0" encoding="UTF-8"?>
<svg version="1.1" xmlns="http://www.w3.org/2000/svg" width="324" height="427">
<path d="M0 0 C4.21074504 3.88580009 8.01737211 7.92713399 11.625 12.375 C12.37265625 13.27347656 13.1203125 14.17195313 13.890625 15.09765625 C39.83794228 47.36861217 51.3815554 88.65950525 46.9375 129.75 C41.72451867 171.04127763 21.12441174 207.92177528 -11.57421875 233.80078125 C-36.71768492 252.68675614 -67.83673594 264.42430528 -99.375 265.375 C-100.36886719 265.41496094 -101.36273438 265.45492188 -102.38671875 265.49609375 C-141.97166021 266.34044005 -181.10065699 251.90244726 -209.8972168 224.69360352 C-210.93064404 223.70288383 -211.96160738 222.70958578 -212.98974609 221.71337891 C-214.18426144 220.55928424 -215.39712082 219.42423142 -216.61328125 218.29296875 C-235.31759786 200.48825855 -247.43358362 175.95769761 -254.375 151.375 C-254.69476807 150.2605249 -254.69476807 150.2605249 -255.02099609 149.12353516 C-265.39630032 111.03687119 -257.83548985 68.2335383 -238.71484375 34.30078125 C-232.31185984 23.36067247 -224.55928895 13.88615035 -215.75195312 4.80322266 C-214.53003033 3.53580274 -213.33336774 2.24413701 -212.140625 0.94921875 C-190.42093005 -22.03609752 -156.53441705 -37.11728785 -125.375 -40.625 C-124.43140625 -40.73457031 -123.4878125 -40.84414063 -122.515625 -40.95703125 C-76.7152749 -45.50071678 -34.29244112 -30.18151115 0 0 Z M-195.375 6.375 C-196.20386719 7.08269531 -197.03273437 7.79039063 -197.88671875 8.51953125 C-222.41406512 29.96687394 -239.33163814 60.87057156 -243.375 93.375 C-243.48457031 94.22449219 -243.59414062 95.07398438 -243.70703125 95.94921875 C-247.65770131 132.03200533 -237.19504258 168.95567906 -214.82910156 197.58056641 C-190.49127016 227.6146599 -156.0840461 246.13666236 -117.65185547 250.17871094 C-82.41525086 253.21647955 -46.01560864 242.51962369 -18.73828125 219.85473633 C-15.89548641 217.42009222 -13.12280094 214.91597722 -10.375 212.375 C-9.54355469 211.61445313 -8.71210938 210.85390625 -7.85546875 210.0703125 C17.7622459 185.57421408 32.15012293 149.99146454 32.97875977 114.81420898 C33.26160822 75.67383522 18.47182335 40.8504576 -8.625 12.8125 C-35.38363763 -13.31433646 -71.18210133 -27.28289243 -108.50976562 -26.97851562 C-140.66283442 -26.14306098 -171.04295711 -14.72382424 -195.375 6.375 Z " fill="#FD4821" transform="translate(259.375,41.625)"/>
<path d="M0 0 C9.49747601 7.51031179 15.34414359 17.3576314 17.3203125 29.34765625 C18.30385067 41.30818293 15.85234542 52.78771812 8.16015625 62.16796875 C7.35771484 63.07869141 7.35771484 63.07869141 6.5390625 64.0078125 C6.01441406 64.62527344 5.48976563 65.24273437 4.94921875 65.87890625 C-1.23515946 72.64534359 -10.22336807 77.39092376 -19.45166016 78.17749023 C-21.55896423 78.24766711 -23.6652842 78.2850296 -25.7734375 78.3203125 C-34.40855182 78.65318751 -40.75558034 80.47479754 -47.1484375 86.5703125 C-48.69753644 88.84091859 -48.69753644 88.84091859 -48.11328125 90.93359375 C-47.89800781 91.61808594 -47.68273437 92.30257812 -47.4609375 93.0078125 C-45.05127109 100.77229314 -44.72609876 107.62997532 -48.4609375 115.0078125 C-48.4609375 119.1305172 -47.45442836 121.37176691 -44.7109375 124.3203125 C-40.80687148 127.86357621 -38.00200828 128.06005219 -32.7734375 127.8828125 C-25.1337295 127.82526291 -18.21546504 130.33744848 -12.28515625 135.125 C-5.46736268 142.16178051 -3.15655727 149.58955034 -3.14624023 159.17407227 C-3.32560256 168.01164686 -6.61052836 173.884094 -12.5234375 180.28125 C-19.35510362 186.36914602 -27.01960709 187.37243524 -35.8828125 187.28125 C-44.30629669 186.63753396 -50.94538066 182.29242301 -56.4609375 176.0078125 C-60.61523165 169.87430128 -62.91341858 163.45719611 -62.4609375 156.0078125 C-61.98934976 153.974923 -61.4660282 151.95351456 -60.8984375 149.9453125 C-58.85843523 142.64622182 -59.90536739 137.56556457 -63.5234375 131.0078125 C-65.16793481 128.23069048 -65.16793481 128.23069048 -66.4609375 127.0078125 C-67.99771098 126.71046744 -69.54071629 126.4450688 -71.0859375 126.1953125 C-77.87982063 124.86754932 -83.06310431 122.47920469 -87.390625 116.76171875 C-91.48569563 110.05118331 -92.14999232 103.62155192 -90.4609375 96.0078125 C-87.99874672 89.48300694 -83.58819138 85.13803936 -77.49609375 81.77734375 C-74.29236837 80.56595431 -71.09649386 80.46868899 -67.6953125 80.37890625 C-65.43211692 80.16407919 -65.43211692 80.16407919 -63.75 78.83984375 C-60.95412432 74.86631134 -60.70819905 69.74905271 -60.4609375 65.0078125 C-61.4545387 61.27271412 -61.4545387 61.27271412 -63.4609375 58.0078125 C-69.29016587 46.46017759 -71.31807797 34.40209035 -67.484375 21.796875 C-62.63469931 9.37544759 -55.09043157 0.71618001 -42.99609375 -4.95703125 C-28.61007962 -10.83113563 -12.71760455 -8.75938757 0 0 Z M-52.4609375 16.0078125 C-57.13646656 23.864851 -59.79311681 32.20015045 -58 41.36328125 C-55.3553765 51.39729395 -50.58032309 57.79707515 -42.0234375 63.59765625 C-34.08723986 67.96498453 -24.47205617 68.59873804 -15.73046875 66.28515625 C-13.50825122 65.34042694 -11.51504454 64.27381317 -9.4609375 63.0078125 C-8.54441406 62.51667969 -8.54441406 62.51667969 -7.609375 62.015625 C-0.85409663 57.93865083 3.89538567 50.27643019 5.9765625 42.7578125 C7.36187285 33.52241014 6.35024067 24.4571708 0.7890625 16.6953125 C-0.26211003 15.43853165 -1.34535624 14.20778761 -2.4609375 13.0078125 C-2.97527344 12.45222656 -3.48960937 11.89664063 -4.01953125 11.32421875 C-10.02235763 5.55171664 -17.70532288 2.86162456 -25.9609375 2.5078125 C-36.94003168 3.02318961 -45.40146473 7.62548358 -52.4609375 16.0078125 Z " fill="#FD4821" transform="translate(186.4609375,68.9921875)"/>
<path d="M0 0 C6.17219818 3.47370136 9.53888921 8.02405386 12.0625 14.5625 C13.46186629 22.25901462 12.59487781 28.20834609 8.6875 35 C4.20381348 40.09211997 -0.49582829 43.57972629 -7.36328125 44.3359375 C-15.37243374 44.43185549 -20.92411523 43.86738932 -27.0234375 38.4921875 C-31.63361622 33.65712201 -34.15632442 28.19071131 -34.40625 21.484375 C-33.950302 14.05242268 -31.77457087 8.46207087 -26.5 3.1875 C-18.05558252 -2.60768847 -9.53362815 -4.24993062 0 0 Z " fill="#FD4821" transform="translate(171.3125,83)"/>
<path d="M0 0 C6.12340916 3.48502708 9.48985602 8.05894515 12 14.5625 C13.13432229 20.80127258 12.81714034 25.32202459 10.37890625 31.10546875 C9.57453295 33.12682133 8.94097191 34.84069195 8.625 37 C9.4845731 38.89300513 9.4845731 38.89300513 10.93359375 40.63671875 C11.68286133 41.62575195 11.68286133 41.62575195 12.44726562 42.63476562 C12.98029297 43.31216797 13.51332031 43.98957031 14.0625 44.6875 C15.10452943 46.04429593 16.1449842 47.40230317 17.18359375 48.76171875 C17.65079834 49.35944092 18.11800293 49.95716309 18.59936523 50.57299805 C19.625 52 19.625 52 19.625 53 C17.56433896 53.1357683 15.50107243 53.23233903 13.4375 53.3125 C12.28894531 53.37050781 11.14039063 53.42851562 9.95703125 53.48828125 C4.51171607 52.69031595 2.28378001 48.93172704 -0.8671875 44.7734375 C-1.66688662 43.64445051 -2.46113723 42.51158517 -3.25 41.375 C-3.87261719 40.51648438 -3.87261719 40.51648438 -4.5078125 39.640625 C-5.6796875 37.9609375 -5.6796875 37.9609375 -7.375 35 C-6.14051991 31.29655972 -4.14165659 29.69749018 -1.375 27 C0.35763912 23.53472176 0.0969774 19.78892972 -0.375 16 C-2.16773598 12.87931144 -3.61759405 11.45034948 -6.6875 9.625 C-10.32507329 8.77905272 -12.76539015 9.03314022 -16.375 10 C-20.4631934 13.46607702 -22.2413931 15.39671716 -22.6875 20.75 C-22.59002798 25.23371297 -21.49254342 27.65434365 -18.375 31 C-16.14517552 32.07747116 -13.87615799 32.96149019 -11.5703125 33.86328125 C-7.87225643 35.77811099 -6.4230681 38.43239751 -4.375 42 C-4.375 42.66 -4.375 43.32 -4.375 44 C-13.13839901 44.61810808 -20.14998871 44.39589451 -27.375 39 C-31.99004783 34.5000885 -34.80155013 29.45436127 -35.375 23 C-35.45187875 16.75085556 -34.11705517 11.07850345 -30.375 6 C-21.7981627 -2.09237159 -11.10668625 -4.99044753 0 0 Z " fill="#000000" transform="translate(62.375,333)"/>
<path d="M0 0 C6.0328125 -0.0928125 6.0328125 -0.0928125 12.1875 -0.1875 C14.07698364 -0.22846802 14.07698364 -0.22846802 16.00463867 -0.27026367 C17.50861206 -0.28150269 17.50861206 -0.28150269 19.04296875 -0.29296875 C20.06414795 -0.3086792 21.08532715 -0.32438965 22.13745117 -0.34057617 C26.57028315 0.18682687 29.14678523 2.14678523 32.25 5.25 C34.40977884 8.64393817 34.8592793 10.98945998 35 15 C34.62875 16.051875 34.2575 17.10375 33.875 18.1875 C33.58625 19.115625 33.2975 20.04375 33 21 C33.97751635 22.34990354 34.98199424 23.68036291 36 25 C37.16477595 29.42954941 37.35371252 32.95851315 35.875 37.3125 C33.44785585 40.79140662 30.7924148 43.1037926 27 45 C24.96767366 45.08527628 22.93252994 45.10716135 20.8984375 45.09765625 C19.80708496 45.09515869 18.71573242 45.09266113 17.59130859 45.09008789 C16.19992676 45.08098389 14.80854492 45.07187988 13.375 45.0625 C8.96125 45.041875 4.5475 45.02125 0 45 C0 30.15 0 15.3 0 0 Z M11 10 C11 12.31 11 14.62 11 17 C14.63 17 18.26 17 22 17 C22.66 15.68 23.32 14.36 24 13 C23.34 12.01 22.68 11.02 22 10 C19.33346095 9.63539547 19.33346095 9.63539547 16.375 9.8125 C15.37210938 9.83957031 14.36921875 9.86664063 13.3359375 9.89453125 C12.17964844 9.94673828 12.17964844 9.94673828 11 10 Z M11 27 C11 29.64 11 32.28 11 35 C12.95825873 35.02694851 14.91662226 35.04637218 16.875 35.0625 C18.51082031 35.07990234 18.51082031 35.07990234 20.1796875 35.09765625 C22.95177546 35.19744303 22.95177546 35.19744303 25 34 C25 32.02 25 30.04 25 28 C22.23547967 26.61773984 19.9538637 26.90474613 16.875 26.9375 C15.77929688 26.94652344 14.68359375 26.95554687 13.5546875 26.96484375 C12.29011719 26.98224609 12.29011719 26.98224609 11 27 Z " fill="#000000" transform="translate(166,332)"/>
<path d="M0 0 C3.650625 -0.0825 7.30125 -0.165 11.0625 -0.25 C12.19953369 -0.28641602 13.33656738 -0.32283203 14.50805664 -0.36035156 C20.91447133 -0.43018852 24.85498921 0.07208854 30 4 C32.89705662 7.45613772 34.23044489 11.58440711 34.5 16.0625 C33.89941 20.79214622 32.53225537 23.00977941 30 27 C29.16432845 28.96211564 29.16432845 28.96211564 29 31 C30.56859002 33.40126211 32.11315201 35.49973608 33.9375 37.6875 C39 43.92921687 39 43.92921687 39 45 C27.72377297 46.22088473 27.72377297 46.22088473 23.68359375 43.359375 C21.93193667 41.31640562 20.44755143 39.26645196 19 37 C18.44570312 36.29359375 17.89140625 35.5871875 17.3203125 34.859375 C16 33 16 33 16 31 C14.35 31 12.7 31 11 31 C11 35.62 11 40.24 11 45 C7.37 45 3.74 45 0 45 C0 30.15 0 15.3 0 0 Z M11 10 C11 13.63 11 17.26 11 21 C16.617863 21.51329263 16.617863 21.51329263 21.5625 19.3125 C23.24183865 17.08201673 23.24183865 17.08201673 22.9375 14.375 C22.13344454 11.67710239 22.13344454 11.67710239 19 10 C16.94290404 9.75944532 16.94290404 9.75944532 14.8125 9.875 C13.554375 9.91625 12.29625 9.9575 11 10 Z " fill="#000000" transform="translate(83,332)"/>
<path d="M0 0 C3.80321751 3.44666587 5.19702948 6.83389953 6 11.8125 C6.07700286 13.50507245 6.10805067 15.20023999 6.09765625 16.89453125 C6.09443359 17.82587891 6.09121094 18.75722656 6.08789062 19.71679688 C6.07951172 20.67650391 6.07113281 21.63621094 6.0625 22.625 C6.05798828 23.60404297 6.05347656 24.58308594 6.04882812 25.59179688 C6.03708684 27.99876111 6.02066419 30.40559857 6 32.8125 C1.66666667 32.8125 -2.66666667 32.8125 -7 32.8125 C-7.74894531 32.85890625 -8.49789062 32.9053125 -9.26953125 32.953125 C-15.2504228 33.21036765 -18.44367352 32.78468206 -23 28.8125 C-24.73765543 25.33718913 -24.59585352 21.6036999 -24 17.8125 C-21.47031526 14.53074682 -19.92268669 13.12006223 -16 11.8125 C-14.27204648 11.74447033 -12.54164635 11.72754355 -10.8125 11.75 C-9.91144531 11.75902344 -9.01039063 11.76804687 -8.08203125 11.77734375 C-7.39496094 11.78894531 -6.70789063 11.80054688 -6 11.8125 C-6.66 10.4925 -7.32 9.1725 -8 7.8125 C-8.67546875 7.90789062 -9.3509375 8.00328125 -10.046875 8.1015625 C-10.93890625 8.21242188 -11.8309375 8.32328125 -12.75 8.4375 C-13.63171875 8.55351562 -14.5134375 8.66953125 -15.421875 8.7890625 C-18.22859878 8.81457817 -19.63384866 8.26093844 -22 6.8125 C-21.10839269 3.51355294 -20.33503019 2.06162501 -17.5625 0 C-11.73737243 -1.94170919 -5.76653032 -2.28258492 0 0 Z M-14 20.8125 C-13.34 22.1325 -12.68 23.4525 -12 24.8125 C-9.69 24.1525 -7.38 23.4925 -5 22.8125 C-5 21.1625 -5 19.5125 -5 17.8125 C-9.09590633 17.47117447 -10.92807025 18.08189578 -14 20.8125 Z " fill="#000000" transform="translate(232,344.1875)"/>
<path d="M0 0 C4 0 8 0 12 0 C12.67933594 -0.01160156 13.35867188 -0.02320313 14.05859375 -0.03515625 C15.23615234 -0.04869141 15.23615234 -0.04869141 16.4375 -0.0625 C17.21996094 -0.07410156 18.00242187 -0.08570313 18.80859375 -0.09765625 C21 0 21 0 24 1 C23.25 7.75 23.25 7.75 21 10 C19.08984375 10.59765625 19.08984375 10.59765625 16.9375 11.0625 C14.1992487 11.52362496 14.1992487 11.52362496 12 13 C11.84344973 14.48638992 11.74933057 15.97949127 11.68359375 17.47265625 C11.64169922 18.37177734 11.59980469 19.27089844 11.55664062 20.19726562 C11.49766602 21.61555664 11.49766602 21.61555664 11.4375 23.0625 C11.39431641 24.01189453 11.35113281 24.96128906 11.30664062 25.93945312 C11.20020868 28.29278176 11.09956846 30.64637099 11 33 C7.37 33 3.74 33 0 33 C0 22.11 0 11.22 0 0 Z " fill="#000000" transform="translate(245,344)"/>
<path d="M0 0 C3.63 0 7.26 0 11 0 C11 10.89 11 21.78 11 33 C7.37 33 3.74 33 0 33 C0 22.11 0 11.22 0 0 Z " fill="#000000" transform="translate(146,344)"/>
<path d="M0 0 C1.9375 1.1875 1.9375 1.1875 3 3 C3.42317323 5.82115488 3.38718434 7.33950907 1.9375 9.8125 C-1.09375543 11.67036623 -3.53422859 11.37133265 -7 11 C-9 9.9375 -9 9.9375 -10 8 C-9.8125 4.375 -9.8125 4.375 -9 1 C-5.95016004 -0.52491998 -3.3576631 -0.23562548 0 0 Z " fill="#000000" transform="translate(155,329)"/>
</svg>
